<svg width="97" height="47" viewBox="0 0 97 47" fill="none" xmlns="http://www.w3.org/2000/svg">
<path d="M22.5852 13.2727V21.7955H0.681818V13.2727H22.5852ZM4.85795 46V12.3352C4.85795 9.63636 5.34091 7.39915 6.30682 5.62358C7.27273 3.84801 8.63636 2.51989 10.3977 1.6392C12.1591 0.75852 14.233 0.318179 16.6193 0.318179C18.1108 0.318179 19.5597 0.431816 20.9659 0.659091C22.3864 0.886364 23.4375 1.08523 24.1193 1.25568L22.4148 9.69318C21.9886 9.56534 21.4915 9.46591 20.9233 9.39489C20.3551 9.30966 19.858 9.26704 19.4318 9.26704C18.3239 9.26704 17.5781 9.50142 17.1946 9.97017C16.8111 10.4389 16.6193 11.0568 16.6193 11.8239V46H4.85795ZM37.6849 27.5909V46H25.9236V13.2727H37.0884V19.4943H37.4293C38.1395 17.4205 39.3895 15.794 41.1793 14.6151C42.9832 13.4361 45.0855 12.8466 47.4861 12.8466C49.8014 12.8466 51.8114 13.3793 53.5159 14.4446C55.2347 15.4957 56.5628 16.9446 57.5003 18.7912C58.452 20.6378 58.9207 22.7472 58.9065 25.1193V46H47.1452V27.5909C47.1594 25.9716 46.7474 24.7003 45.9094 23.777C45.0855 22.8537 43.9349 22.392 42.4577 22.392C41.4918 22.392 40.6466 22.6051 39.9222 23.0312C39.2119 23.4432 38.6651 24.0398 38.2815 24.821C37.898 25.5881 37.6991 26.5114 37.6849 27.5909ZM63.5126 46V13.2727H74.9331V19.4943H75.274C75.8706 17.1932 76.8152 15.5099 78.1078 14.4446C79.4146 13.3793 80.9416 12.8466 82.6888 12.8466C83.2001 12.8466 83.7044 12.8892 84.2016 12.9744C84.7129 13.0455 85.203 13.152 85.6717 13.294V23.3295C85.0893 23.1307 84.372 22.9815 83.5197 22.8821C82.6675 22.7827 81.9359 22.733 81.3251 22.733C80.1746 22.733 79.1376 22.9957 78.2143 23.5213C77.3053 24.0327 76.5879 24.7571 76.0624 25.6946C75.5368 26.6179 75.274 27.7045 75.274 28.9545V46H63.5126ZM90.9703 46.6818C89.3226 46.6818 87.9092 46.1065 86.7303 44.956C85.5655 43.7912 84.9902 42.3778 85.0044 40.7159C84.9902 39.0966 85.5655 37.7116 86.7303 36.5611C87.9092 35.4105 89.3226 34.8352 90.9703 34.8352C92.5328 34.8352 93.9107 35.4105 95.1038 36.5611C96.3112 37.7116 96.922 39.0966 96.9362 40.7159C96.922 41.8239 96.6308 42.8324 96.0626 43.7415C95.5087 44.6364 94.7842 45.3537 93.8893 45.8935C92.9945 46.419 92.0215 46.6818 90.9703 46.6818Z" fill="#F9FAFB"/>
</svg>
