<svg width="443" height="60" viewBox="0 0 443 60" fill="none" xmlns="http://www.w3.org/2000/svg">
<path d="M22.5851 14.2727V22.7955H0.681641V14.2727H22.5851ZM4.85778 47V13.3352C4.85778 10.6364 5.34073 8.39915 6.30664 6.62358C7.27255 4.84801 8.63619 3.51989 10.3975 2.6392C12.1589 1.75852 14.2328 1.31818 16.6191 1.31818C18.1106 1.31818 19.5595 1.43182 20.9657 1.65909C22.3862 1.88636 23.4373 2.08523 24.1191 2.25568L22.4146 10.6932C21.9885 10.5653 21.4913 10.4659 20.9231 10.3949C20.3549 10.3097 19.8578 10.267 19.4316 10.267C18.3237 10.267 17.5779 10.5014 17.1944 10.9702C16.8109 11.4389 16.6191 12.0568 16.6191 12.8239V47H4.85778Z" fill="#F3F4F6"/>
<path d="M40.6091 47.5966C37.1148 47.5966 34.1034 46.929 31.575 45.5938C29.0608 44.2443 27.1219 42.3125 25.7583 39.7983C24.4088 37.2699 23.7341 34.2443 23.7341 30.7216C23.7341 27.3409 24.4159 24.3864 25.7796 21.858C27.1432 19.3295 29.0679 17.3622 31.5537 15.956C34.0395 14.5497 36.9728 13.8466 40.3534 13.8466C42.825 13.8466 45.0623 14.2301 47.0651 14.9972C49.0679 15.7642 50.7796 16.8793 52.2 18.3423C53.6205 19.7912 54.7142 21.5526 55.4813 23.6264C56.2483 25.7003 56.6319 28.0369 56.6319 30.6364V33.3636H27.3989V26.8864H45.808C45.7938 25.9489 45.5523 25.125 45.0836 24.4148C44.629 23.6903 44.0111 23.1293 43.2299 22.7315C42.4628 22.3196 41.5892 22.1136 40.6091 22.1136C39.6574 22.1136 38.7838 22.3196 37.9884 22.7315C37.1929 23.1293 36.5537 23.6832 36.0708 24.3935C35.602 25.1037 35.3534 25.9347 35.325 26.8864V33.875C35.325 34.9261 35.5452 35.8636 35.9855 36.6875C36.4259 37.5114 37.058 38.1577 37.8819 38.6264C38.7057 39.0952 39.7 39.3295 40.8648 39.3295C41.6745 39.3295 42.4131 39.2159 43.0807 38.9886C43.7625 38.7614 44.3449 38.4347 44.8279 38.0085C45.3108 37.5682 45.6659 37.0426 45.8932 36.4318H56.6319C56.2625 38.7045 55.389 40.679 54.0111 42.3551C52.6333 44.017 50.808 45.3097 48.5353 46.233C46.2767 47.142 43.6347 47.5966 40.6091 47.5966Z" fill="#F3F4F6"/>
<path d="M60.2312 47V14.2727H71.6517V20.4943H71.9926C72.5892 18.1932 73.5338 16.5099 74.8264 15.4446C76.1332 14.3793 77.6602 13.8466 79.4073 13.8466C79.9187 13.8466 80.423 13.8892 80.9201 13.9744C81.4315 14.0455 81.9216 14.152 82.3903 14.294V24.3295C81.8079 24.1307 81.0906 23.9815 80.2383 23.8821C79.386 23.7827 78.6545 23.733 78.0437 23.733C76.8931 23.733 75.8562 23.9957 74.9329 24.5213C74.0238 25.0327 73.3065 25.7571 72.7809 26.6946C72.2554 27.6179 71.9926 28.7045 71.9926 29.9545V47H60.2312Z" fill="#F3F4F6"/>
<path d="M95.0184 47.4261C92.6889 47.4261 90.544 46.8153 88.5838 45.5938C86.6377 44.3722 85.0752 42.5185 83.8963 40.0327C82.7315 37.5469 82.1491 34.4148 82.1491 30.6364C82.1491 26.6875 82.7599 23.4773 83.9815 21.0057C85.2173 18.5341 86.8082 16.723 88.7542 15.5724C90.7145 14.4219 92.7741 13.8466 94.9332 13.8466C96.5525 13.8466 97.973 14.1307 99.1946 14.6989C100.416 15.2528 101.439 15.9986 102.263 16.9361C103.087 17.8594 103.712 18.875 104.138 19.983H104.308V3.36364H116.07V47H104.393V41.6307H104.138C103.683 42.7386 103.03 43.733 102.178 44.6136C101.339 45.4801 100.317 46.169 99.1093 46.6804C97.9162 47.1776 96.5525 47.4261 95.0184 47.4261ZM99.365 38.392C100.445 38.392 101.368 38.0795 102.135 37.4545C102.916 36.8153 103.513 35.9205 103.925 34.7699C104.351 33.6051 104.564 32.2273 104.564 30.6364C104.564 29.017 104.351 27.6321 103.925 26.4815C103.513 25.3168 102.916 24.429 102.135 23.8182C101.368 23.1932 100.445 22.8807 99.365 22.8807C98.2855 22.8807 97.3622 23.1932 96.5951 23.8182C95.8423 24.429 95.2599 25.3168 94.848 26.4815C94.4502 27.6321 94.2514 29.017 94.2514 30.6364C94.2514 32.2557 94.4502 33.6477 94.848 34.8125C95.2599 35.9631 95.8423 36.8509 96.5951 37.4759C97.3622 38.0866 98.2855 38.392 99.365 38.392Z" fill="#F3F4F6"/>
<path d="M127.803 59.2727C126.453 59.2727 125.168 59.1662 123.946 58.9531C122.725 58.7543 121.652 58.4773 120.729 58.1222L123.286 49.7699C124.252 50.1108 125.132 50.331 125.928 50.4304C126.737 50.5298 127.426 50.473 127.995 50.2599C128.577 50.0469 128.996 49.642 129.252 49.0455L129.507 48.4489L118.002 14.2727H130.274L135.558 36.9432H135.899L141.269 14.2727H153.627L141.695 49.7273C141.098 51.5312 140.232 53.1506 139.095 54.5852C137.973 56.0341 136.496 57.1776 134.664 58.0156C132.831 58.8537 130.544 59.2727 127.803 59.2727Z" fill="#F3F4F6"/>
<path d="M167.533 28.5909V47H155.772V14.2727H166.937V20.4943H167.278C167.988 18.4205 169.238 16.794 171.028 15.6151C172.832 14.4361 174.934 13.8466 177.334 13.8466C179.65 13.8466 181.66 14.3793 183.364 15.4446C185.083 16.4957 186.411 17.9446 187.349 19.7912C188.3 21.6378 188.769 23.7472 188.755 26.1193V47H176.993V28.5909C177.008 26.9716 176.596 25.7003 175.758 24.777C174.934 23.8537 173.783 23.392 172.306 23.392C171.34 23.392 170.495 23.6051 169.77 24.0312C169.06 24.4432 168.513 25.0398 168.13 25.821C167.746 26.5881 167.547 27.5114 167.533 28.5909Z" fill="#F3F4F6"/>
<path d="M202.48 47.5114C200.392 47.5114 198.546 47.1705 196.94 46.4886C195.35 45.7926 194.1 44.7415 193.19 43.3352C192.281 41.929 191.827 40.1392 191.827 37.9659C191.827 36.1761 192.132 34.6491 192.743 33.3849C193.354 32.1065 194.206 31.0625 195.3 30.2528C196.394 29.4432 197.665 28.8253 199.114 28.3991C200.577 27.973 202.154 27.696 203.844 27.5682C205.676 27.4261 207.146 27.2557 208.254 27.0568C209.377 26.8437 210.186 26.5526 210.683 26.1832C211.181 25.7997 211.429 25.2955 211.429 24.6705V24.5852C211.429 23.733 211.102 23.0795 210.449 22.625C209.796 22.1705 208.957 21.9432 207.935 21.9432C206.813 21.9432 205.896 22.1918 205.186 22.6889C204.49 23.1719 204.071 23.9176 203.929 24.9261H193.105C193.247 22.9375 193.879 21.1051 195.002 19.429C196.138 17.7386 197.793 16.3892 199.966 15.3807C202.139 14.358 204.852 13.8466 208.105 13.8466C210.449 13.8466 212.551 14.1236 214.412 14.6776C216.273 15.2173 217.857 15.9773 219.163 16.9574C220.47 17.9233 221.465 19.0597 222.146 20.3665C222.842 21.6591 223.19 23.0653 223.19 24.5852V47H212.196V42.3977H211.94C211.287 43.6193 210.492 44.6065 209.554 45.3594C208.631 46.1122 207.573 46.6591 206.379 47C205.2 47.3409 203.901 47.5114 202.48 47.5114ZM206.315 40.0966C207.21 40.0966 208.048 39.9119 208.83 39.5426C209.625 39.1733 210.271 38.6406 210.769 37.9446C211.266 37.2486 211.514 36.4034 211.514 35.4091V32.6818C211.202 32.8097 210.868 32.9304 210.513 33.044C210.172 33.1577 209.803 33.2642 209.405 33.3636C209.021 33.4631 208.609 33.5554 208.169 33.6406C207.743 33.7259 207.296 33.804 206.827 33.875C205.918 34.017 205.172 34.2514 204.59 34.5781C204.021 34.8906 203.595 35.2812 203.311 35.75C203.041 36.2045 202.906 36.7159 202.906 37.2841C202.906 38.1932 203.226 38.8892 203.865 39.3722C204.504 39.8551 205.321 40.0966 206.315 40.0966Z" fill="#F3F4F6"/>
<path d="M239.371 28.5909V47H227.61V14.2727H238.775V20.4943H239.116C239.826 18.4205 241.076 16.794 242.866 15.6151C244.67 14.4361 246.772 13.8466 249.173 13.8466C251.488 13.8466 253.498 14.3793 255.202 15.4446C256.921 16.4957 258.249 17.9446 259.187 19.7912C260.139 21.6378 260.607 23.7472 260.593 26.1193V47H248.832V28.5909C248.846 26.9716 248.434 25.7003 247.596 24.777C246.772 23.8537 245.621 23.392 244.144 23.392C243.178 23.392 242.333 23.6051 241.609 24.0312C240.898 24.4432 240.352 25.0398 239.968 25.821C239.585 26.5881 239.386 27.5114 239.371 28.5909Z" fill="#F3F4F6"/>
<path d="M277.046 47.4261C274.716 47.4261 272.571 46.8153 270.611 45.5938C268.665 44.3722 267.103 42.5185 265.924 40.0327C264.759 37.5469 264.176 34.4148 264.176 30.6364C264.176 26.6875 264.787 23.4773 266.009 21.0057C267.245 18.5341 268.836 16.723 270.782 15.5724C272.742 14.4219 274.801 13.8466 276.961 13.8466C278.58 13.8466 280 14.1307 281.222 14.6989C282.443 15.2528 283.466 15.9986 284.29 16.9361C285.114 17.8594 285.739 18.875 286.165 19.983H286.336V3.36364H298.097V47H286.421V41.6307H286.165C285.711 42.7386 285.057 43.733 284.205 44.6136C283.367 45.4801 282.344 46.169 281.137 46.6804C279.944 47.1776 278.58 47.4261 277.046 47.4261ZM281.392 38.392C282.472 38.392 283.395 38.0795 284.162 37.4545C284.943 36.8153 285.54 35.9205 285.952 34.7699C286.378 33.6051 286.591 32.2273 286.591 30.6364C286.591 29.017 286.378 27.6321 285.952 26.4815C285.54 25.3168 284.943 24.429 284.162 23.8182C283.395 23.1932 282.472 22.8807 281.392 22.8807C280.313 22.8807 279.39 23.1932 278.622 23.8182C277.87 24.429 277.287 25.3168 276.875 26.4815C276.478 27.6321 276.279 29.017 276.279 30.6364C276.279 32.2557 276.478 33.6477 276.875 34.8125C277.287 35.9631 277.87 36.8509 278.622 37.4759C279.39 38.0866 280.313 38.392 281.392 38.392Z" fill="#F3F4F6"/>
<path d="M311.79 47.5114C309.702 47.5114 307.856 47.1705 306.251 46.4886C304.66 45.7926 303.41 44.7415 302.501 43.3352C301.592 41.929 301.137 40.1392 301.137 37.9659C301.137 36.1761 301.442 34.6491 302.053 33.3849C302.664 32.1065 303.516 31.0625 304.61 30.2528C305.704 29.4432 306.975 28.8253 308.424 28.3991C309.887 27.973 311.464 27.696 313.154 27.5682C314.986 27.4261 316.457 27.2557 317.565 27.0568C318.687 26.8437 319.496 26.5526 319.993 26.1832C320.491 25.7997 320.739 25.2955 320.739 24.6705V24.5852C320.739 23.733 320.413 23.0795 319.759 22.625C319.106 22.1705 318.268 21.9432 317.245 21.9432C316.123 21.9432 315.207 22.1918 314.496 22.6889C313.8 23.1719 313.381 23.9176 313.239 24.9261H302.415C302.557 22.9375 303.19 21.1051 304.312 19.429C305.448 17.7386 307.103 16.3892 309.276 15.3807C311.449 14.358 314.163 13.8466 317.415 13.8466C319.759 13.8466 321.861 14.1236 323.722 14.6776C325.583 15.2173 327.167 15.9773 328.474 16.9574C329.78 17.9233 330.775 19.0597 331.457 20.3665C332.153 21.6591 332.501 23.0653 332.501 24.5852V47H321.506V42.3977H321.251C320.597 43.6193 319.802 44.6065 318.864 45.3594C317.941 46.1122 316.883 46.6591 315.69 47C314.511 47.3409 313.211 47.5114 311.79 47.5114ZM315.626 40.0966C316.52 40.0966 317.359 39.9119 318.14 39.5426C318.935 39.1733 319.582 38.6406 320.079 37.9446C320.576 37.2486 320.824 36.4034 320.824 35.4091V32.6818C320.512 32.8097 320.178 32.9304 319.823 33.044C319.482 33.1577 319.113 33.2642 318.715 33.3636C318.332 33.4631 317.92 33.5554 317.479 33.6406C317.053 33.7259 316.606 33.804 316.137 33.875C315.228 34.017 314.482 34.2514 313.9 34.5781C313.332 34.8906 312.905 35.2812 312.621 35.75C312.351 36.2045 312.217 36.7159 312.217 37.2841C312.217 38.1932 312.536 38.8892 313.175 39.3722C313.815 39.8551 314.631 40.0966 315.626 40.0966Z" fill="#F3F4F6"/>
<path d="M336.92 47V14.2727H348.341V20.4943H348.682C349.278 18.1932 350.223 16.5099 351.515 15.4446C352.822 14.3793 354.349 13.8466 356.096 13.8466C356.608 13.8466 357.112 13.8892 357.609 13.9744C358.121 14.0455 358.611 14.152 359.079 14.294V24.3295C358.497 24.1307 357.78 23.9815 356.927 23.8821C356.075 23.7827 355.344 23.733 354.733 23.733C353.582 23.733 352.545 23.9957 351.622 24.5213C350.713 25.0327 349.996 25.7571 349.47 26.6946C348.944 27.6179 348.682 28.7045 348.682 29.9545V47H336.92Z" fill="#F3F4F6"/>
<path d="M361.736 47V14.2727H373.497V47H361.736ZM367.617 10.8636C366.026 10.8636 364.662 10.3381 363.526 9.28693C362.389 8.23579 361.821 6.97159 361.821 5.49432C361.821 4.01705 362.389 2.75284 363.526 1.7017C364.662 0.650568 366.026 0.125 367.617 0.125C369.222 0.125 370.585 0.650568 371.707 1.7017C372.844 2.75284 373.412 4.01705 373.412 5.49432C373.412 6.97159 372.844 8.23579 371.707 9.28693C370.585 10.3381 369.222 10.8636 367.617 10.8636Z" fill="#F3F4F6"/>
<path d="M378.631 47V40.5227L392.949 23.392V23.2216H379.142V14.2727H406.841V21.4318L393.801 37.8807V38.0511H407.352V47H378.631Z" fill="#F3F4F6"/>
<path d="M421.776 47.5114C419.687 47.5114 417.841 47.1705 416.236 46.4886C414.645 45.7926 413.395 44.7415 412.486 43.3352C411.577 41.929 411.122 40.1392 411.122 37.9659C411.122 36.1761 411.428 34.6491 412.038 33.3849C412.649 32.1065 413.501 31.0625 414.595 30.2528C415.689 29.4432 416.96 28.8253 418.409 28.3991C419.872 27.973 421.449 27.696 423.139 27.5682C424.972 27.4261 426.442 27.2557 427.55 27.0568C428.672 26.8437 429.481 26.5526 429.979 26.1832C430.476 25.7997 430.724 25.2955 430.724 24.6705V24.5852C430.724 23.733 430.398 23.0795 429.744 22.625C429.091 22.1705 428.253 21.9432 427.23 21.9432C426.108 21.9432 425.192 22.1918 424.482 22.6889C423.785 23.1719 423.366 23.9176 423.224 24.9261H412.401C412.543 22.9375 413.175 21.1051 414.297 19.429C415.433 17.7386 417.088 16.3892 419.261 15.3807C421.435 14.358 424.148 13.8466 427.401 13.8466C429.744 13.8466 431.847 14.1236 433.707 14.6776C435.568 15.2173 437.152 15.9773 438.459 16.9574C439.766 17.9233 440.76 19.0597 441.442 20.3665C442.138 21.6591 442.486 23.0653 442.486 24.5852V47H431.491V42.3977H431.236C430.582 43.6193 429.787 44.6065 428.849 45.3594C427.926 46.1122 426.868 46.6591 425.675 47C424.496 47.3409 423.196 47.5114 421.776 47.5114ZM425.611 40.0966C426.506 40.0966 427.344 39.9119 428.125 39.5426C428.92 39.1733 429.567 38.6406 430.064 37.9446C430.561 37.2486 430.81 36.4034 430.81 35.4091V32.6818C430.497 32.8097 430.163 32.9304 429.808 33.044C429.467 33.1577 429.098 33.2642 428.7 33.3636C428.317 33.4631 427.905 33.5554 427.464 33.6406C427.038 33.7259 426.591 33.804 426.122 33.875C425.213 34.017 424.467 34.2514 423.885 34.5781C423.317 34.8906 422.891 35.2812 422.607 35.75C422.337 36.2045 422.202 36.7159 422.202 37.2841C422.202 38.1932 422.521 38.8892 423.16 39.3722C423.8 39.8551 424.616 40.0966 425.611 40.0966Z" fill="#F3F4F6"/>
</svg>
