<svg width="227" height="59" viewBox="0 0 227 59" fill="none" xmlns="http://www.w3.org/2000/svg">
<path d="M22.5852 13.2727V21.7955H0.681818V13.2727H22.5852ZM4.85795 46V12.3352C4.85795 9.63636 5.34091 7.39915 6.30682 5.62358C7.27273 3.84801 8.63636 2.51989 10.3977 1.6392C12.1591 0.75852 14.233 0.318179 16.6193 0.318179C18.1108 0.318179 19.5597 0.431816 20.9659 0.659091C22.3864 0.886364 23.4375 1.08523 24.1193 1.25568L22.4148 9.69318C21.9886 9.56534 21.4915 9.46591 20.9233 9.39489C20.3551 9.30966 19.858 9.26704 19.4318 9.26704C18.3239 9.26704 17.5781 9.50142 17.1946 9.97017C16.8111 10.4389 16.6193 11.0568 16.6193 11.8239V46H4.85795ZM40.6093 46.5966C37.115 46.5966 34.1036 45.929 31.5752 44.5938C29.061 43.2443 27.1221 41.3125 25.7585 38.7983C24.409 36.2699 23.7343 33.2443 23.7343 29.7216C23.7343 26.3409 24.4161 23.3864 25.7798 20.858C27.1434 18.3295 29.0681 16.3622 31.5539 14.956C34.0397 13.5497 36.9729 12.8466 40.3536 12.8466C42.8252 12.8466 45.0624 13.2301 47.0653 13.9972C49.0681 14.7642 50.7798 15.8793 52.2002 17.3423C53.6207 18.7912 54.7144 20.5526 55.4815 22.6264C56.2485 24.7003 56.632 27.0369 56.632 29.6364V32.3636H27.3991V25.8864H45.8082C45.794 24.9489 45.5525 24.125 45.0837 23.4148C44.6292 22.6903 44.0113 22.1293 43.23 21.7315C42.463 21.3196 41.5894 21.1136 40.6093 21.1136C39.6576 21.1136 38.784 21.3196 37.9886 21.7315C37.1931 22.1293 36.5539 22.6832 36.071 23.3935C35.6022 24.1037 35.3536 24.9347 35.3252 25.8864V32.875C35.3252 33.9261 35.5454 34.8636 35.9857 35.6875C36.4261 36.5114 37.0582 37.1577 37.882 37.6264C38.7059 38.0952 39.7002 38.3295 40.865 38.3295C41.6746 38.3295 42.4133 38.2159 43.0809 37.9886C43.7627 37.7614 44.3451 37.4347 44.8281 37.0085C45.311 36.5682 45.6661 36.0426 45.8934 35.4318H56.632C56.2627 37.7045 55.3891 39.679 54.0113 41.3551C52.6335 43.017 50.8082 44.3097 48.5354 45.233C46.2769 46.142 43.6349 46.5966 40.6093 46.5966ZM60.2314 46V13.2727H71.6518V19.4943H71.9928C72.5893 17.1932 73.5339 15.5099 74.8266 14.4446C76.1334 13.3793 77.6604 12.8466 79.4075 12.8466C79.9189 12.8466 80.4232 12.8892 80.9203 12.9744C81.4317 13.0455 81.9217 13.152 82.3905 13.294V23.3295C81.8081 23.1307 81.0908 22.9815 80.2385 22.8821C79.3862 22.7827 78.6547 22.733 78.0439 22.733C76.8933 22.733 75.8564 22.9957 74.9331 23.5213C74.024 24.0327 73.3067 24.7571 72.7811 25.6946C72.2555 26.6179 71.9928 27.7045 71.9928 28.9545V46H60.2314ZM95.0186 46.4261C92.6891 46.4261 90.5442 45.8153 88.584 44.5938C86.6379 43.3722 85.0754 41.5185 83.8965 39.0327C82.7317 36.5469 82.1493 33.4148 82.1493 29.6364C82.1493 25.6875 82.7601 22.4773 83.9817 20.0057C85.2175 17.5341 86.8084 15.723 88.7544 14.5724C90.7146 13.4219 92.7743 12.8466 94.9334 12.8466C96.5527 12.8466 97.9732 13.1307 99.1947 13.6989C100.416 14.2528 101.439 14.9986 102.263 15.9361C103.087 16.8594 103.712 17.875 104.138 18.983H104.308V2.36364H116.07V46H104.394V40.6307H104.138C103.683 41.7386 103.03 42.733 102.178 43.6136C101.34 44.4801 100.317 45.169 99.1095 45.6804C97.9163 46.1776 96.5527 46.4261 95.0186 46.4261ZM99.3652 37.392C100.445 37.392 101.368 37.0795 102.135 36.4545C102.916 35.8153 103.513 34.9205 103.925 33.7699C104.351 32.6051 104.564 31.2273 104.564 29.6364C104.564 28.017 104.351 26.6321 103.925 25.4815C103.513 24.3168 102.916 23.429 102.135 22.8182C101.368 22.1932 100.445 21.8807 99.3652 21.8807C98.2857 21.8807 97.3624 22.1932 96.5953 22.8182C95.8425 23.429 95.2601 24.3168 94.8482 25.4815C94.4504 26.6321 94.2516 28.017 94.2516 29.6364C94.2516 31.2557 94.4504 32.6477 94.8482 33.8125C95.2601 34.9631 95.8425 35.8509 96.5953 36.4759C97.3624 37.0866 98.2857 37.392 99.3652 37.392ZM127.803 58.2727C126.454 58.2727 125.168 58.1662 123.946 57.9531C122.725 57.7543 121.652 57.4773 120.729 57.1222L123.286 48.7699C124.252 49.1108 125.133 49.331 125.928 49.4304C126.738 49.5298 127.427 49.473 127.995 49.2599C128.577 49.0469 128.996 48.642 129.252 48.0455L129.508 47.4489L118.002 13.2727H130.275L135.559 35.9432H135.9L141.269 13.2727H153.627L141.695 48.7273C141.098 50.5312 140.232 52.1506 139.096 53.5852C137.973 55.0341 136.496 56.1776 134.664 57.0156C132.831 57.8537 130.544 58.2727 127.803 58.2727ZM167.533 27.5909V46H155.772V13.2727H166.937V19.4943H167.278C167.988 17.4205 169.238 15.794 171.028 14.6151C172.832 13.4361 174.934 12.8466 177.335 12.8466C179.65 12.8466 181.66 13.3793 183.364 14.4446C185.083 15.4957 186.411 16.9446 187.349 18.7912C188.3 20.6378 188.769 22.7472 188.755 25.1193V46H176.994V27.5909C177.008 25.9716 176.596 24.7003 175.758 23.777C174.934 22.8537 173.783 22.392 172.306 22.392C171.34 22.392 170.495 22.6051 169.771 23.0312C169.06 23.4432 168.513 24.0398 168.13 24.821C167.746 25.5881 167.548 26.5114 167.533 27.5909ZM193.361 46V13.2727H204.782V19.4943H205.122C205.719 17.1932 206.664 15.5099 207.956 14.4446C209.263 13.3793 210.79 12.8466 212.537 12.8466C213.049 12.8466 213.553 12.8892 214.05 12.9744C214.561 13.0455 215.051 13.152 215.52 13.294V23.3295C214.938 23.1307 214.22 22.9815 213.368 22.8821C212.516 22.7827 211.784 22.733 211.174 22.733C210.023 22.733 208.986 22.9957 208.063 23.5213C207.154 24.0327 206.436 24.7571 205.911 25.6946C205.385 26.6179 205.122 27.7045 205.122 28.9545V46H193.361ZM220.819 46.6818C219.171 46.6818 217.758 46.1065 216.579 44.956C215.414 43.7912 214.839 42.3778 214.853 40.7159C214.839 39.0966 215.414 37.7116 216.579 36.5611C217.758 35.4105 219.171 34.8352 220.819 34.8352C222.381 34.8352 223.759 35.4105 224.952 36.5611C226.16 37.7116 226.77 39.0966 226.785 40.7159C226.77 41.8239 226.479 42.8324 225.911 43.7415C225.357 44.6364 224.633 45.3537 223.738 45.8935C222.843 46.419 221.87 46.6818 220.819 46.6818Z" fill="#F9FAFB"/>
</svg>
